<svg xmlns="http://www.w3.org/2000/svg" viewBox="0 0 32 32"><defs><style>.cls-1{fill:#999;}.cls-2{fill:#fff;}</style></defs><g id="レイヤー_2" data-name="レイヤー 2"><g id="レイヤー_1-2" data-name="レイヤー 1"><circle class="cls-1" cx="16" cy="16" r="16"/><path class="cls-2" d="M19.5,9.67,16,13.17l-3.5-3.5a1.06,1.06,0,0,0-1.49,0L9.67,11a1.06,1.06,0,0,0,0,1.49l3.5,3.5-3.5,3.5a1.06,1.06,0,0,0,0,1.49L11,22.33a1.06,1.06,0,0,0,1.49,0l3.5-3.5,3.5,3.5a1.06,1.06,0,0,0,1.49,0L22.33,21a1.06,1.06,0,0,0,0-1.49L18.83,16l3.5-3.5a1.06,1.06,0,0,0,0-1.49L21,9.67A1.06,1.06,0,0,0,19.5,9.67Z"/></g></g></svg>