<svg xmlns="http://www.w3.org/2000/svg" xmlns:xlink="http://www.w3.org/1999/xlink" width="43" height="43" viewBox="0 0 43 43"><defs><clipPath id="a"><rect width="43" height="43" fill="none"/></clipPath></defs><g clip-path="url(#a)"><path d="M30.818,33.25h-8.8a1.466,1.466,0,0,1-1.466-1.466V25.577l-3.625-2.439-3.7,2.444v6.2a1.466,1.466,0,0,1-1.466,1.466h-8.8A1.466,1.466,0,0,1,1.5,31.784V18.622a2.195,2.195,0,0,1,.94-1.8L14.693,8.242V2.466A1.467,1.467,0,0,1,16.159,1H24.12l-1.95,2.944,1.96,2.92h-5.04V8.242L31.346,16.82a2.2,2.2,0,0,1,.938,1.8V31.784a1.466,1.466,0,0,1-1.466,1.466" transform="translate(4.755 4)" fill="#7f5d4c"/></g></svg>