<?xml version="1.0" encoding="utf-8"?>
<!-- Generator: Adobe Illustrator 26.3.1, SVG Export Plug-In . SVG Version: 6.00 Build 0)  -->
<svg version="1.1" id="レイヤー_1" xmlns="http://www.w3.org/2000/svg" xmlns:xlink="http://www.w3.org/1999/xlink" x="0px"
	 y="0px" viewBox="0 0 110 16" style="enable-background:new 0 0 110 16;" xml:space="preserve">
<style type="text/css">
	.st0{fill:#FFFFFF;}
	.st1{enable-background:new    ;}
</style>
<g id="グループ_12170" transform="translate(-465 -528)">
	<path id="線_707" class="st0" d="M565,540h-57.5v-1H565V540z"/>
	<path id="パス_9946" class="st0" d="M565,532v8h10L565,532z"/>
	<g class="st1">
		<path class="st0" d="M466.7,533.3c0.1,0.4,0.2,0.9,0.5,1.6l1.8,4.7c0.1,0.2,0.3,0.7,0.4,1c0.1-0.4,0.2-0.7,0.4-1l1.8-4.7
			c0.3-0.7,0.4-1.1,0.5-1.6h1.5c-0.2,0.4-0.3,0.5-0.8,1.8l-2.2,5.4c-0.4,0.9-0.4,1-0.5,1.5h-1.3c-0.1-0.4-0.2-0.7-0.5-1.5L466,535
			c-0.3-0.7-0.5-1.1-0.8-1.8H466.7z"/>
		<path class="st0" d="M477.2,529.7v1.4h-1.6v-1.4H477.2z M477.1,533.3c-0.1,0.6-0.1,1-0.1,1.8v5c0,0.7,0,1.2,0.1,1.8h-1.4
			c0.1-0.7,0.1-1.1,0.1-1.8v-5c0-0.8,0-1.2-0.1-1.8H477.1z"/>
		<path class="st0" d="M481.1,537.8c0,1.1,0.2,1.7,0.6,2.2c0.5,0.7,1.3,1.1,2.3,1.1c1.3,0,2.2-0.6,2.6-1.9l1.1,0.4
			c-0.3,0.7-0.5,1-0.9,1.3c-0.8,0.7-1.7,1.1-2.9,1.1c-2.5,0-4.1-1.8-4.1-4.5c0-2.7,1.6-4.5,4-4.5c2.1,0,3.6,1.3,3.9,3.5
			c0,0.2,0.1,0.8,0.1,1.2H481.1z M486.5,536.8c-0.1-0.9-0.3-1.5-0.8-2c-0.5-0.5-1.1-0.7-1.9-0.7c-1,0-1.8,0.5-2.3,1.4
			c-0.2,0.4-0.3,0.7-0.4,1.3H486.5z"/>
		<path class="st0" d="M497.7,541.9c-0.1-0.3-0.2-0.8-0.3-1.2l-1.6-4.7c0-0.1-0.1-0.4-0.3-1c-0.1,0.4-0.3,0.9-0.3,1l-1.6,4.6
			c-0.2,0.5-0.3,0.9-0.3,1.2h-1.1c-0.1-0.4-0.1-0.4-0.4-1.2l-1.7-5.5c-0.2-0.6-0.4-1.3-0.6-1.9h1.5c0,0.5,0.1,1,0.4,1.7l1.2,4
			c0.1,0.3,0.2,0.6,0.3,1.2c0.1-0.4,0.3-1,0.3-1.2l1.5-4.5c0.2-0.5,0.3-0.9,0.3-1.2h1.1c0,0.3,0.2,0.7,0.3,1.2l1.5,4.6
			c0,0.1,0.1,0.5,0.2,0.7c0.1,0.2,0.1,0.2,0.1,0.4c0.1-0.6,0.2-1,0.3-1.1l1.2-4.1c0.2-0.7,0.3-1.3,0.4-1.7h1.5
			c-0.1,0.3-0.3,1-0.6,1.9l-1.7,5.5c-0.2,0.6-0.3,0.9-0.3,1.2H497.7z"/>
	</g>
</g>
</svg>
