<?xml version="1.0" encoding="utf-8"?>
<!-- Generator: Adobe Illustrator 27.2.0, SVG Export Plug-In . SVG Version: 6.00 Build 0)  -->
<svg version="1.1" id="レイヤー_1" xmlns="http://www.w3.org/2000/svg" xmlns:xlink="http://www.w3.org/1999/xlink" x="0px"
	 y="0px" viewBox="0 0 248 199" style="enable-background:new 0 0 248 199;" xml:space="preserve">
<style type="text/css">
	.st0{fill:#E4EBE8;}
	.st1{enable-background:new    ;}
	.st2{fill:#20482B;}
</style>
<g id="グループ_20705" transform="translate(9682 1175)">
	<rect id="長方形_5214" x="-9682" y="-1175" class="st0" width="248" height="199"/>
	<g class="st1">
		<path class="st2" d="M-9579.2-1062.8c-0.3-0.7-0.7-1.3-1.3-2.1l-5.2-7.8c-0.4-0.6-0.9-1.5-1.4-2.4c0,0.3,0,0.3,0.1,1
			c0,0.4,0.1,1.3,0.1,1.7v6.6c0,1.3,0.1,2.3,0.2,3h-2.9c0.1-0.7,0.2-1.7,0.2-3v-10.3c0-1,0-1.8-0.2-2.6h3.1c0.2,0.5,0.5,1.1,1.2,2.1
			l5.1,7.6c0.5,0.7,1.1,1.8,1.6,2.6c-0.1-0.8-0.1-2-0.1-2.8v-6.7c0-1.2,0-2-0.2-2.8h2.9c-0.1,0.8-0.2,1.5-0.2,2.8v10.6
			c0,1.1,0,1.9,0.2,2.6H-9579.2z"/>
		<path class="st2" d="M-9561.8-1062.6c-0.7-0.1-1.4-0.1-2.6-0.1h-6.2c-1.2,0-1.7,0-2.5,0.1c0.1-0.8,0.2-1.5,0.2-2.6v-10.8
			c0-1,0-1.6-0.2-2.6c0.8,0,1.3,0.1,2.5,0.1h6c1,0,1.7,0,2.6-0.1v2.6c-0.8-0.1-1.4-0.1-2.6-0.1h-5.8v4.1h4.9c1,0,1.7,0,2.6-0.1v2.6
			c-0.8-0.1-1.4-0.1-2.6-0.1h-4.9v4.7h6c1.1,0,1.7,0,2.6-0.1V-1062.6z"/>
		<path class="st2" d="M-9547.1-1062.8c-0.1-0.5-0.3-1.3-0.5-2l-2.1-7.4c-0.2-0.8-0.4-1.5-0.6-2.6c-0.2,1.1-0.4,1.9-0.6,2.6
			l-2.1,7.4c-0.2,0.9-0.4,1.5-0.5,2h-2.7c-0.1-0.5-0.1-0.5-0.5-2.1l-3.2-11.5c-0.3-1.2-0.5-1.8-0.8-2.4h3.2c0,0.7,0.1,1.3,0.4,2.2
			l1.9,7.6c0.1,0.6,0.4,1.6,0.5,2.3c0.3-1.2,0.4-1.8,0.6-2.4l2.2-7.7c0.2-0.8,0.4-1.5,0.4-2h2.5c0.1,0.5,0.2,1.3,0.5,2l2.2,7.7
			c0.1,0.5,0.2,0.9,0.6,2.4c0.1-0.5,0.1-0.5,0.2-1.2c0.1-0.3,0.2-1.1,0.3-1.3l1.9-7.5c0.2-0.8,0.3-1.6,0.3-2.1h3.2
			c-0.3,0.7-0.5,1.2-0.8,2.4l-3.2,11.5c-0.1,0.6-0.2,0.9-0.3,1.1c-0.2,0.6-0.2,0.6-0.2,1H-9547.1z"/>
		<path class="st2" d="M-9535.9-1067.7c0.1,0.9,0.2,1.3,0.6,1.8c0.6,0.8,1.6,1.2,2.9,1.2c2,0,3.2-0.9,3.2-2.4c0-0.8-0.4-1.5-1-1.8
			c-0.6-0.3-0.7-0.3-3.5-1c-1.5-0.3-2.3-0.7-3-1.2c-1-0.8-1.5-1.9-1.5-3.2c0-2.8,2.2-4.6,5.7-4.6c2.3,0,4,0.7,5,2
			c0.5,0.7,0.7,1.3,1,2.3l-2.9,0.3c-0.1-0.7-0.3-1-0.6-1.4c-0.5-0.6-1.4-1-2.5-1c-1.7,0-2.9,0.9-2.9,2.2c0,0.8,0.4,1.4,1.4,1.8
			c0.4,0.2,0.6,0.2,2.8,0.7c1.6,0.3,2.5,0.7,3.3,1.2c1.1,0.8,1.7,1.9,1.7,3.4c0,1.4-0.4,2.6-1.3,3.4c-1.1,1-2.6,1.5-4.8,1.5
			c-1.6,0-3.2-0.4-4.2-1c-0.8-0.5-1.4-1.3-1.8-2.3c-0.2-0.5-0.3-0.8-0.4-1.7L-9535.9-1067.7z"/>
	</g>
	<g class="st1">
		<path class="st2" d="M-9627.5-1046.5c-0.2,0-0.3,0-0.5,0.1c-1.3,0.3-2.1,0.4-2.8,0.5v2.8c1.4-0.4,2.4-0.6,3.4-0.6
			c1.1,0,2.1,0.2,2.8,0.7c1.1,0.6,1.6,1.6,1.6,2.8c0,1.9-1.4,3.3-3.3,3.3c-1.3,0-2.2-0.7-2.5-1.8c-0.1-0.5-0.2-1-0.2-1.8
			c0.5-0.1,0.7-0.2,1.1-0.4c0,0.3,0,0.4,0,0.6c0,1.7,0.5,2.4,1.6,2.4c1.2,0,2.1-0.9,2.1-2.3c0-1.6-1.3-2.5-3.4-2.5
			c-1,0-2,0.2-3.4,0.6v4c0,0.9-0.4,1.3-1.2,1.3c-0.9,0-1.9-0.4-2.6-1c-0.5-0.4-0.7-0.9-0.7-1.5c0-0.7,0.4-1.4,1.3-2.1
			c0.6-0.5,1.2-0.9,2.3-1.3v-3c-0.1,0-0.1,0-0.6,0c-0.3,0-0.6,0-1,0c-0.2,0-0.7,0-0.8,0c-0.2,0-0.3,0-0.4,0c-0.1,0-0.2,0-0.3,0v-1.1
			c0.5,0.1,0.9,0.1,1.6,0.1c0.4,0,1.1,0,1.5,0v-1.6c0-0.6,0-1-0.1-1.5h1.2c-0.1,0.4-0.1,0.8-0.1,1.5v1.5c1.4-0.2,2.4-0.4,3.3-0.7
			L-9627.5-1046.5z M-9631.8-1041.8c-1.6,0.8-2.5,1.6-2.5,2.4c0,0.3,0.2,0.7,0.7,1c0.4,0.3,1,0.5,1.4,0.5c0.3,0,0.4-0.1,0.4-0.8
			V-1041.8z M-9623.1-1044.8c-0.8-1.2-2-2.3-3.2-3.1l0.8-0.6c1.5,1,2.3,1.8,3.2,3L-9623.1-1044.8z"/>
		<path class="st2" d="M-9612-1049.3c0-0.5,0-0.8-0.1-1.1h1.2c-0.1,0.3-0.1,0.6-0.1,1.1v0.7h4.5c0.9,0,1.4,0,1.8-0.1v1.1
			c-0.4-0.1-0.9-0.1-1.8-0.1h-9.9c0,7.1-0.4,9.3-1.8,11.7c-0.3-0.4-0.4-0.4-0.9-0.8c1.3-2,1.6-4.1,1.6-10c0-1,0-1.5-0.1-1.9
			c0.5,0,1,0.1,1.7,0.1h3.9V-1049.3z M-9611.5-1045.8c0-0.8,0-1.1-0.1-1.4h1.2c-0.1,0.3-0.1,0.6-0.1,1.4v0.7h3.7
			c0.8,0,1.2,0,1.6-0.1v1.1c-0.4-0.1-0.9-0.1-1.5-0.1h-3.7v2.5h3.1c0.6,0,0.9,0,1.3-0.1c0,0.4-0.1,0.8-0.1,1.5v2.5
			c0,0.9,0,1.5,0.1,1.9h-1.1v-0.8h-6.9v0.8h-1.1c0.1-0.5,0.1-1,0.1-1.9v-2.5c0-0.6,0-1-0.1-1.4c0.4,0,0.7,0.1,1.4,0.1h2.2V-1045.8z
			 M-9614-1037.5h6.9v-3.2h-6.9V-1037.5z"/>
		<path class="st2" d="M-9601.2-1045.9c0.6,0,2.2-0.2,3.5-0.4c0.3-1.2,0.5-2.7,0.5-3.4c0,0,0-0.1,0-0.2l1.3,0.1
			c-0.1,0.4-0.2,0.6-0.3,1.5c-0.1,0.5-0.2,1.1-0.3,1.8c0.4,0,0.6,0,0.9,0c1.1,0,1.8,0.2,2.3,0.7c0.6,0.5,0.8,1.3,0.8,2.6
			c0,2.4-0.4,4.6-1.1,5.5c-0.4,0.5-0.8,0.8-1.6,0.8c-0.7,0-1.4-0.2-2.4-0.6c0-0.2,0-0.4,0-0.6c0-0.2,0-0.4,0-0.6
			c0.9,0.5,1.8,0.7,2.4,0.7c0.4,0,0.7-0.3,0.9-0.8c0.4-1,0.7-2.7,0.7-4.5c0-1.7-0.5-2.2-2-2.2c-0.4,0-0.6,0-1.2,0.1
			c-0.6,2.5-1.3,4.6-2.4,6.8c-0.2,0.4-0.5,1-1,1.9l-1.1-0.6c0.5-0.6,1.1-1.7,1.7-2.9c0.8-1.6,1.2-3,1.8-5.1
			c-1.4,0.2-2.1,0.3-2.3,0.4c-0.4,0.1-0.5,0.1-0.9,0.2L-9601.2-1045.9z M-9590.7-1047.3c1.6,1.8,2.6,3.4,3.3,5.7l-1,0.6
			c-0.6-2.2-1.7-4.2-3.3-5.7L-9590.7-1047.3z"/>
		<path class="st2" d="M-9581.5-1046.8c-0.1,0.5-0.2,0.9-0.4,1.8c-0.4,2.3-0.4,2.4-0.5,2.8c0,0.2,0,0.2-0.1,0.4l0,0
			c0.2-0.2,0.3-0.3,0.5-0.5c1.1-0.8,2.9-1.4,4.6-1.4c2.6,0,4.3,1.2,4.3,3.1c0,1.1-0.5,2.1-1.4,2.8c-1,0.7-2.3,1.1-4,1.1
			c-1,0-1.9-0.1-2.8-0.3c-0.3-0.1-0.3-0.1-1.3-0.3c0-0.1,0-0.2,0-0.3c0-0.4,0-0.6-0.1-1c1.2,0.5,2.7,0.8,4.1,0.8
			c2.6,0,4.3-1.1,4.3-2.7c0-1.3-1.2-2.1-3.1-2.1c-1.6,0-3.3,0.5-4.5,1.4c-0.3,0.2-0.4,0.3-0.6,0.7l-1.2,0c0-0.3,0.1-0.4,0.1-0.9
			c0.2-1.2,0.4-3.1,0.7-4.4c0.1-0.4,0.1-0.6,0.1-0.8L-9581.5-1046.8z M-9580.8-1049.6c1.2,0.7,3.7,1.5,5.4,1.8l-0.4,1.1
			c-2-0.5-2-0.5-3.1-0.9c-1-0.4-1-0.4-2.4-1L-9580.8-1049.6z"/>
		<path class="st2" d="M-9563.2-1041.3c-0.9,2.1-1.9,3.1-3,3.1c-1.5,0-2.7-1.7-2.7-3.9c0-1.6,0.6-3.2,1.7-4.4c1.3-1.4,3-2.1,5.2-2.1
			c1.8,0,3.4,0.6,4.4,1.6c1,1,1.6,2.4,1.6,3.9c0,2.5-1.3,4.5-3.7,5.5c-0.7,0.3-1.3,0.5-2.4,0.7c-0.2-0.5-0.3-0.7-0.6-1.1
			c1.2-0.2,1.9-0.4,2.7-0.8c1.8-0.8,2.8-2.5,2.8-4.5c0-1.8-0.9-3.3-2.5-4c-0.6-0.3-1.1-0.4-1.9-0.4
			C-9561.9-1045.4-9562.5-1042.9-9563.2-1041.3z M-9565.2-1046.8c-1.6,1-2.6,2.8-2.6,4.8c0,1.5,0.7,2.7,1.5,2.7c0.7,0,1.3-0.8,2-2.3
			c0.7-1.5,1.2-3.9,1.5-5.9C-9563.8-1047.5-9564.5-1047.3-9565.2-1046.8z"/>
		<path class="st2" d="M-9544.5-1046.5c-0.2,0-0.3,0-0.5,0.1c-1.3,0.3-2.1,0.4-2.8,0.5v2.8c1.4-0.4,2.4-0.6,3.4-0.6
			c1.1,0,2.1,0.2,2.8,0.7c1.1,0.6,1.6,1.6,1.6,2.8c0,1.9-1.4,3.3-3.3,3.3c-1.3,0-2.2-0.7-2.5-1.8c-0.1-0.5-0.2-1-0.2-1.8
			c0.5-0.1,0.7-0.2,1.1-0.4c0,0.3,0,0.4,0,0.6c0,1.7,0.5,2.4,1.6,2.4c1.2,0,2.1-0.9,2.1-2.3c0-1.6-1.3-2.5-3.4-2.5
			c-1,0-2,0.2-3.4,0.6v4c0,0.9-0.4,1.3-1.2,1.3c-0.9,0-1.9-0.4-2.6-1c-0.5-0.4-0.7-0.9-0.7-1.5c0-0.7,0.4-1.4,1.3-2.1
			c0.6-0.5,1.2-0.9,2.3-1.3v-3c-0.1,0-0.1,0-0.6,0c-0.3,0-0.6,0-1,0c-0.2,0-0.7,0-0.8,0c-0.2,0-0.3,0-0.4,0c-0.1,0-0.2,0-0.3,0v-1.1
			c0.5,0.1,0.9,0.1,1.6,0.1c0.4,0,1.1,0,1.5,0v-1.6c0-0.6,0-1-0.1-1.5h1.2c-0.1,0.4-0.1,0.8-0.1,1.5v1.5c1.4-0.2,2.4-0.4,3.3-0.7
			L-9544.5-1046.5z M-9548.9-1041.8c-1.6,0.8-2.5,1.6-2.5,2.4c0,0.3,0.2,0.7,0.7,1c0.4,0.3,1,0.5,1.4,0.5c0.3,0,0.4-0.1,0.4-0.8
			V-1041.8z M-9540.1-1044.8c-0.8-1.2-2-2.3-3.2-3.1l0.8-0.6c1.5,1,2.3,1.8,3.2,3L-9540.1-1044.8z"/>
		<path class="st2" d="M-9533.8-1047.2c-0.5,0.9-0.7,1.4-1.5,2.4c-0.2-0.3-0.4-0.5-0.8-0.7c1.1-1.2,1.7-2.3,2.1-4
			c0.1-0.4,0.1-0.6,0.1-0.9l1.1,0.2c-0.1,0.3-0.1,0.4-0.3,0.9c-0.1,0.5-0.2,0.8-0.4,1.3h2.9c0.8,0,1.2,0,1.6-0.1v1.1
			c-0.5,0-1-0.1-1.6-0.1h-1c0,1.7,0,1.9-0.1,3h1.4c0.7,0,1.1,0,1.5-0.1v1.1c-0.4-0.1-0.9-0.1-1.5-0.1h-1.4c0,0.4-0.1,0.6-0.1,0.9
			c0.9,1.7,1.6,2.6,3,3.6c-0.3,0.3-0.4,0.5-0.6,1c-1.2-1.1-1.7-1.8-2.7-3.4c-0.6,2-1.4,3.2-3.2,4.6c-0.3-0.4-0.4-0.6-0.8-0.8
			c2.2-1.6,3.1-3.2,3.4-5.9h-1.5c-0.8,0-1.2,0-1.7,0.1v-1.1c0.5,0.1,0.9,0.1,1.7,0.1h1.5c0.1-0.9,0.1-1.2,0.1-3H-9533.8z
			 M-9527.2-1036.4h-1.1c0.1-0.4,0.1-1.1,0.1-1.8v-8.9c0-0.6,0-1.1-0.1-1.7c0.4,0.1,0.8,0.1,1.4,0.1h3.2c0.7,0,1,0,1.4-0.1
			c-0.1,0.5-0.1,0.9-0.1,1.7v8.8c0,0.8,0,1.5,0.1,1.9h-1.1v-1.1h-3.9V-1036.4z M-9527.2-1038.5h3.9v-9.3h-3.9V-1038.5z"/>
		<path class="st2" d="M-9515.3-1046.8c-0.1,0.5-0.2,0.9-0.4,1.8c-0.4,2.3-0.4,2.4-0.5,2.8c0,0.2,0,0.2-0.1,0.4l0,0
			c0.2-0.2,0.3-0.3,0.5-0.5c1.1-0.8,2.9-1.4,4.6-1.4c2.6,0,4.3,1.2,4.3,3.1c0,1.1-0.5,2.1-1.4,2.8c-1,0.7-2.3,1.1-4,1.1
			c-1,0-1.9-0.1-2.8-0.3c-0.3-0.1-0.3-0.1-1.3-0.3c0-0.1,0-0.2,0-0.3c0-0.4,0-0.6-0.1-1c1.2,0.5,2.7,0.8,4.1,0.8
			c2.6,0,4.3-1.1,4.3-2.7c0-1.3-1.2-2.1-3.1-2.1c-1.6,0-3.3,0.5-4.5,1.4c-0.3,0.2-0.4,0.3-0.6,0.7l-1.2,0c0-0.3,0.1-0.4,0.1-0.9
			c0.2-1.2,0.4-3.1,0.7-4.4c0.1-0.4,0.1-0.6,0.1-0.8L-9515.3-1046.8z M-9514.6-1049.6c1.2,0.7,3.7,1.5,5.4,1.8l-0.4,1.1
			c-2-0.5-2-0.5-3.1-0.9c-1-0.4-1-0.4-2.4-1L-9514.6-1049.6z"/>
		<path class="st2" d="M-9498.9-1049.2c-0.1,0.5-0.1,0.5-0.1,3.3c2.6-0.1,3.2-0.2,5.2-0.3c0-0.1,0-0.2,0-0.2s0-0.1,0-0.2
			c0-0.2,0-0.4,0-0.5c0-1.5,0-1.9-0.1-2.4h1.2c0,0.3-0.1,0.7-0.1,1.2v0.7l0,1v0.4c1.6,0,2.8-0.1,3.3-0.1l0,1.1c-0.4,0-0.5,0-1.2,0
			c-0.1,0-0.6,0-1.1,0c-0.3,0-0.6,0-1.1,0c0,1.4-0.1,2.5-0.3,3.1c-0.3,0.9-0.8,1.4-1.6,1.4c-0.6,0-1.3-0.2-2.2-0.7
			c0-0.2,0-0.3,0-0.5c0-0.2,0-0.3,0-0.7c0.9,0.6,1.6,0.9,2.1,0.9c0.4,0,0.6-0.3,0.8-1c0.1-0.7,0.2-1.2,0.2-2.5
			c-1.9,0.1-3.1,0.1-5.2,0.3c0,0.1,0,0.2,0,0.2s0,0.2,0,0.4c0,0.3,0,0.6,0,0.8c0,2.5,0,3.6,0.2,4c0.1,0.5,0.4,0.8,1.1,1
			c0.5,0.2,1.5,0.3,2.5,0.3c1.7,0,3.4-0.2,4.5-0.6l0.1,1.2c-0.2,0-0.3,0-0.6,0.1c-1.5,0.2-2.8,0.3-4,0.3c-2.8,0-4.1-0.5-4.5-2
			c-0.2-0.6-0.2-1.5-0.2-3.8c0-0.1,0-1.4,0-2c-1.6,0.1-2.5,0.2-3.2,0.3l-0.1-1.1c0.2,0,0.3,0,0.4,0c0.3,0,1.3-0.1,3-0.2
			c0-0.5,0-0.6,0-1c0-1.5,0-2-0.1-2.4H-9498.9z"/>
	</g>
	<g class="st1">
		<path class="st2" d="M-9556-1113.5v0.9c3.4,0.7,6,3.7,6,7.3v0.9c0,2.2,0.8,4.3,2.3,6l0.3,0.4c0.4,0.4,0.5,1.1,0.2,1.6
			c-0.2,0.5-0.8,0.9-1.4,0.9h-18c-0.6,0-1.1-0.3-1.4-0.9c-0.2-0.5-0.1-1.2,0.2-1.6l0.3-0.4c1.5-1.6,2.3-3.8,2.3-6v-0.9
			c0-3.6,2.5-6.7,6-7.3v-0.9c0-0.8,0.7-1.5,1.5-1.5S-9556-1114.3-9556-1113.5z M-9557.5-1091c-0.8,0-1.6-0.3-2.1-0.9
			s-0.9-1.4-0.9-2.1h6c0,0.8-0.3,1.6-0.9,2.1S-9556.7-1091-9557.5-1091z"/>
	</g>
</g>
</svg>
