<svg xmlns="http://www.w3.org/2000/svg" xmlns:xlink="http://www.w3.org/1999/xlink" width="100" height="13.051" viewBox="0 0 100 13.051"><defs><clipPath id="a"><rect width="12" height="12" fill="none"/></clipPath></defs><g transform="translate(-261 -289.001)"><text transform="translate(277 300.052)" fill="#fff" font-size="12" font-family="HiraginoSans-W6, Hiragino Sans"><tspan x="0" y="0">ページの先頭へ</tspan></text><g transform="translate(261 289.001)"><g clip-path="url(#a)"><path d="M1.715,1.417h9.73a.266.266,0,0,0,.266-.266V.266A.266.266,0,0,0,11.444,0H1.715a.266.266,0,0,0-.266.266v.885a.266.266,0,0,0,.266.266" transform="translate(-0.58)" fill="#fff"/><path d="M7.322,4.328a.265.265,0,0,0-.376,0L2.913,8.361a.265.265,0,0,0,0,.376l.626.626a.265.265,0,0,0,.376,0L6.426,6.852v6.582a.266.266,0,0,0,.266.266h.886a.266.266,0,0,0,.266-.266V6.852l2.511,2.511a.265.265,0,0,0,.376,0l.626-.626a.265.265,0,0,0,0-.376Z" transform="translate(-1.134 -1.7)" fill="#fff"/></g></g></g></svg>