<?xml version="1.0" encoding="utf-8"?>
<!-- Generator: Adobe Illustrator 26.3.1, SVG Export Plug-In . SVG Version: 6.00 Build 0)  -->
<svg version="1.1" id="レイヤー_1" xmlns="http://www.w3.org/2000/svg" xmlns:xlink="http://www.w3.org/1999/xlink" x="0px"
	 y="0px" viewBox="0 0 71.5 18" style="enable-background:new 0 0 71.5 18;" xml:space="preserve">
<style type="text/css">
	.st0{fill:#FFFFFF;}
	.st1{enable-background:new    ;}
</style>
<g id="MV矢印" transform="translate(-503.5 -522)">
	<path id="パス_10332" class="st0" d="M565.5,540h-62v-1h62V540z"/>
	<path id="パス_9946" class="st0" d="M565,532v8h10L565,532z"/>
	<g class="st1">
		<path class="st0" d="M519.5,526.4c0.1,0.4,0.2,0.8,0.4,1.4l1.6,4.1c0.1,0.2,0.2,0.6,0.3,0.9c0.1-0.4,0.2-0.6,0.3-0.9l1.6-4.1
			c0.3-0.6,0.4-1,0.4-1.4h1.3c-0.2,0.3-0.2,0.4-0.7,1.5l-2,4.7c-0.3,0.8-0.4,0.9-0.4,1.3h-1.1c-0.1-0.4-0.2-0.6-0.5-1.3l-1.9-4.7
			c-0.3-0.6-0.4-0.9-0.7-1.5H519.5z"/>
		<path class="st0" d="M528.7,523.3v1.2h-1.4v-1.2H528.7z M528.6,526.4c-0.1,0.5-0.1,0.9-0.1,1.6v4.4c0,0.6,0,1,0.1,1.6h-1.3
			c0.1-0.6,0.1-1,0.1-1.6v-4.4c0-0.7,0-1.1-0.1-1.6H528.6z"/>
		<path class="st0" d="M532.1,530.3c0,0.9,0.2,1.5,0.6,2c0.4,0.6,1.1,1,2,1c1.1,0,1.9-0.6,2.3-1.6l1,0.4c-0.3,0.6-0.4,0.8-0.8,1.2
			c-0.7,0.6-1.5,1-2.5,1c-2.2,0-3.6-1.5-3.6-4c0-2.4,1.4-4,3.5-4c1.8,0,3.1,1.2,3.4,3c0,0.2,0.1,0.7,0.1,1.1H532.1z M536.8,529.4
			c-0.1-0.8-0.3-1.3-0.7-1.7c-0.4-0.4-1-0.6-1.7-0.6c-0.9,0-1.6,0.4-2,1.2c-0.2,0.3-0.3,0.6-0.4,1.1H536.8z"/>
		<path class="st0" d="M546.6,533.9c-0.1-0.3-0.2-0.7-0.3-1.1l-1.4-4.1c0-0.1-0.1-0.4-0.2-0.9c-0.1,0.4-0.2,0.8-0.3,0.9l-1.4,4
			c-0.1,0.4-0.3,0.8-0.3,1.1h-1c-0.1-0.4-0.1-0.4-0.3-1.1L540,528c-0.2-0.5-0.4-1.2-0.6-1.7h1.3c0,0.4,0.1,0.9,0.3,1.5l1,3.5
			c0.1,0.2,0.2,0.5,0.3,1c0.1-0.3,0.3-0.9,0.3-1l1.3-4c0.2-0.4,0.3-0.8,0.3-1.1h0.9c0,0.3,0.1,0.6,0.3,1.1l1.3,4
			c0,0.1,0.1,0.4,0.2,0.6c0.1,0.2,0.1,0.2,0.1,0.3c0.1-0.5,0.2-0.9,0.2-1l1-3.6c0.2-0.6,0.3-1.1,0.3-1.5h1.3
			c-0.1,0.3-0.3,0.9-0.5,1.7l-1.5,4.8c-0.2,0.6-0.2,0.8-0.3,1.1H546.6z"/>
	</g>
</g>
</svg>
